<svg fill="#000000" xmlns="http://www.w3.org/2000/svg"  viewBox="0 0 50 50" width="50px" height="50px"><path d="M27.5,23h9.765l1.129,3H27.5c-0.827,0-1.5-0.673-1.5-1.5S26.673,23,27.5,23z M22.196,4.208	c-0.446,0.781-2.402,4.513-3.104,7.172c-0.278,1.052-0.587,2.498-0.799,4.279c1.958-3.217,4.977-5.174,8.752-5.547	c2.662-0.263,8.101,0.632,12.901,1.422l0.146,0.024l-1.922-5.947L37.588,5.5c-2.47-0.472-9.388-1.158-15.344-1.437	C22.226,4.112,22.223,4.162,22.196,4.208z M24,24.5c0-1.93,1.57-3.5,3.5-3.5h8.415l-7.781-1.477C26.277,19.119,26,17.998,26,17.366	c0-1.498,1.723-2.651,4.256-2.868l10.601-0.57l-0.093-0.286c-0.086,0.009-0.171,0.025-0.26,0.011l-0.884-0.145	c-4.446-0.731-9.979-1.639-12.38-1.405c-3.93,0.389-6.802,2.722-8.304,6.747c-0.907,2.43-0.682,7.647,0.927,13.407	c0.945,3.185,2.329,6.607,4.299,10.198c0.248,0.42,0.495,0.841,0.761,1.252C24.981,43.796,26,45.39,26,45.39v-9.591	c0.002-2.44,1.191-5.588,4.536-6.428c1.779-0.446,7.295-1.275,7.351-1.283L38.472,28H27.5C25.57,28,24,26.43,24,24.5z M23.609,45.507c-0.387-0.646-0.749-1.286-1.1-1.923c-2.673-4.469-4.266-9.226-5.268-13.459C15,20.667,16.289,14.158,17.158,10.87	c0.609-2.306,2.02-5.228,2.825-6.77c-1.719,0.303-5.706,1.251-7.387,1.995L12,6.358v17.503c0,4.79,0.317,9.819,0.685,15.641	c0.104,1.657,0.212,3.365,0.317,5.131l0.048,0.815l0.809,0.116c2.793,0.399,5.704,0.453,8.183,0.453	c0.638,0,1.286-0.006,1.934-0.011L23.609,45.507z"/></svg>